<svg width="1510" height="244" viewBox="0 0 1510 244" fill="none" xmlns="http://www.w3.org/2000/svg">
<path d="M76.5673 137.298C64.8108 137.298 56.0349 135.89 50.2394 133.075C44.5268 130.178 41.5877 125.086 41.4221 117.8C40.3458 120.864 39.9732 123.72 40.3044 126.369C40.7184 129.019 41.3807 131.626 42.2914 134.193C33.4327 134.441 26.0642 134.69 20.186 134.938C14.3077 135.269 8.96767 135.394 4.16574 135.311C2.92386 128.687 2.22013 122.147 2.05454 115.689C1.97175 109.148 2.4685 102.235 3.5448 94.9497C8.09835 94.9497 12.6519 95.405 17.2055 96.3157C21.759 97.2265 26.0642 98.5097 30.121 100.166C34.1778 101.739 37.6551 103.684 40.5528 106.002L43.0365 103.394C40.2216 101.159 37.1583 99.2963 33.8466 97.806C30.6178 96.233 27.3475 94.9083 24.0358 93.832C19.8134 92.3417 15.9636 90.4375 12.4863 88.1193C9.09186 85.8012 6.40112 82.9035 4.41411 79.4262C2.42711 75.9489 1.4336 71.8093 1.4336 67.0074C1.4336 61.0464 2.79967 55.6649 5.5318 50.863C8.26394 45.9783 12.7347 42.1284 18.9441 39.3135C25.2363 36.4158 33.6811 34.9669 44.2784 34.9669C54.793 34.9669 62.8238 36.4572 68.3709 39.4377C73.9179 42.3354 76.7742 47.7169 76.9398 55.5821C78.0989 52.436 78.4715 49.4969 78.0575 46.7648C77.6436 44.0327 76.9812 41.1349 76.0705 38.0716C82.0315 37.9888 86.999 37.9061 90.9731 37.8233C94.9471 37.6577 98.4657 37.4921 101.529 37.3265C104.592 37.1609 107.697 37.0781 110.843 37.0781C112.085 43.0391 112.747 49.4969 112.83 56.4514C112.996 63.3232 112.54 70.3605 111.464 77.5634C106.745 77.4806 102.523 77.0666 98.7969 76.3215C95.1541 75.4936 91.7596 74.2931 88.6135 72.72C85.4674 71.147 82.2385 69.2014 78.9268 66.8832L76.6915 69.7395C79.8375 72.0577 83.0664 74.0447 86.3781 75.7006C89.6898 77.2736 92.7945 78.7225 95.6922 80.0471C99.9974 81.9513 103.64 84.0625 106.621 86.3807C109.601 88.6989 111.878 91.5138 113.451 94.8255C115.107 98.1372 115.935 102.277 115.935 107.244C115.935 114.116 114.734 119.58 112.333 123.637C110.015 127.694 106.911 130.716 103.019 132.703C99.1281 134.607 94.8643 135.849 90.2279 136.428C85.6744 137.008 81.1208 137.298 76.5673 137.298ZM174.625 137.67C136.789 137.67 117.871 122.271 117.871 91.4724C117.871 74.6657 122.632 62.3297 132.153 54.4644C141.757 46.5992 156.121 42.6666 175.246 42.6666C195.53 42.6666 210.267 46.5578 219.457 54.3402C228.73 62.0399 233.366 73.4238 233.366 88.4919C233.366 105.464 228.481 117.924 218.712 125.872C208.942 133.738 194.247 137.67 174.625 137.67ZM172.266 96.9367H178.972V83.4002H172.266V96.9367ZM236.285 135.435C235.457 132.786 234.836 129.639 234.422 125.997C234.091 122.354 234.008 118.711 234.173 115.068C234.339 111.425 234.753 108.403 235.415 106.002C237.319 105.506 239.058 104.222 240.631 102.153C242.204 100 242.991 96.4399 242.991 91.4724C242.991 87.25 242.535 83.9798 241.625 81.6616C240.797 79.2606 239.845 77.5634 238.768 76.5699C237.692 75.5764 236.74 75.0382 235.912 74.9554C235.084 72.2233 234.504 68.9944 234.173 65.2688C233.925 61.4603 233.966 57.6933 234.297 53.9677C234.711 50.242 235.415 47.1787 236.409 44.7778C240.3 45.2745 244.646 45.6885 249.448 46.0197C254.25 46.268 258.928 46.3922 263.482 46.3922C269.194 46.3922 274.576 46.3508 279.626 46.268C284.759 46.1025 288.94 45.9369 292.169 45.7713C291.093 46.9304 289.934 48.9174 288.692 51.7323C287.533 54.4644 286.581 57.3622 285.835 60.4255C285.173 63.4888 284.966 66.1795 285.215 68.4977C287.45 61.1292 291.631 55.2096 297.758 50.7388C303.967 46.1852 312.205 43.9085 322.471 43.9085C328.018 43.9085 332.654 44.6122 336.38 46.0197C340.106 47.3443 343.003 50.0765 345.073 54.2161C343.666 55.7891 342.258 57.4863 340.851 59.3078C339.443 61.0464 338.119 63.0334 336.877 65.2688L339.981 67.0074C343.873 60.1357 349.088 54.5886 355.629 50.3662C362.252 46.0611 369.414 43.9085 377.114 43.9085C383.737 43.9085 388.994 44.8606 392.885 46.7648C396.859 48.669 399.799 52.5602 401.703 58.4384C402.862 61.8329 403.4 65.3102 403.317 68.8702C403.234 72.3475 402.986 75.8661 402.572 79.4262C402.158 82.9035 401.951 86.3807 401.951 89.858C401.951 93.6664 402.324 96.6883 403.069 98.9237C403.814 101.076 404.766 102.691 405.925 103.767C407.167 104.843 408.367 105.588 409.527 106.002C410.272 108.403 410.686 111.425 410.768 115.068C410.934 118.711 410.851 122.354 410.52 125.997C410.189 129.639 409.609 132.786 408.781 135.435C405.635 135.104 401.868 134.69 397.48 134.193C393.092 133.779 387.752 133.572 381.46 133.572C374.671 133.572 368.669 133.779 363.453 134.193C358.237 134.69 354.097 135.104 351.034 135.435C350.62 133.2 350.289 130.26 350.041 126.618C349.792 122.892 349.709 119.042 349.792 115.068C349.958 111.094 350.289 107.658 350.786 104.761V87.6226H346.191V104.761C346.77 107.658 347.101 111.094 347.184 115.068C347.35 119.042 347.308 122.892 347.06 126.618C346.812 130.26 346.398 133.2 345.818 135.435C343.831 135.187 341.844 134.897 339.857 134.566C337.87 134.317 335.593 134.069 333.027 133.82C330.543 133.572 327.48 133.448 323.837 133.448C319.201 133.448 314.564 133.696 309.928 134.193C305.374 134.69 301.566 135.104 298.503 135.435C298.089 133.2 297.758 130.26 297.509 126.618C297.261 122.892 297.178 119.042 297.261 115.068C297.426 111.094 297.758 107.658 298.254 104.761V87.6226H293.659V104.761C294.239 107.658 294.57 111.094 294.653 115.068C294.818 119.042 294.777 122.892 294.529 126.618C294.28 130.26 293.866 133.2 293.287 135.435C291.3 135.187 289.106 134.897 286.705 134.566C284.304 134.317 281.323 134.069 277.763 133.82C274.286 133.655 269.815 133.572 264.351 133.572C258.721 133.572 253.464 133.779 248.579 134.193C243.777 134.607 239.679 135.021 236.285 135.435ZM468.622 137.546C455.126 137.546 444.115 135.683 435.588 131.958C427.143 128.149 420.933 122.726 416.959 115.689C412.985 108.652 410.998 100.166 410.998 90.2305C410.998 78.8053 413.11 69.6154 417.332 62.6608C421.637 55.7063 428.302 50.656 437.326 47.5099C446.351 44.281 457.983 42.6666 472.223 42.6666C482.82 42.6666 492.259 43.7843 500.538 46.0197C508.9 48.255 515.482 51.5667 520.284 55.9547C525.086 60.2599 527.487 65.5999 527.487 71.9749C527.487 74.2931 527.114 76.6527 526.369 79.0536C525.707 81.3718 524.299 83.483 522.147 85.3872C519.994 87.2914 516.765 88.8231 512.46 89.9822C508.155 91.1413 502.401 91.7208 495.198 91.7208C490.396 91.7208 486.049 91.6794 482.158 91.5966C478.35 91.431 474.831 91.1826 471.602 90.8515H465.393V100.041H471.478V95.0739C489.03 94.2459 507.575 94.2459 527.114 95.0739C527.114 104.264 525.127 112.005 521.153 118.297C517.179 124.589 510.928 129.391 502.401 132.703C493.873 135.932 482.613 137.546 468.622 137.546ZM465.393 84.3937H471.478V77.1908H465.393V84.3937ZM607.552 135.187C578.74 135.187 563.589 118.421 563.589 85.884C563.589 53.3467 578.74 37.0781 607.552 37.0781C636.488 37.0781 651.639 53.3467 651.639 85.884C651.639 118.421 636.488 135.187 607.552 135.187ZM609.663 124.382L642.449 84.7663C646.671 79.6746 645.429 74.0861 639.468 71.7265L592.401 52.85C582.466 48.876 574.642 55.3337 578.244 67.0074L595.009 120.532C596.996 126.99 604.944 129.971 609.663 124.382ZM688.038 60.3013L732.622 89.1128C737.713 92.3417 740.446 95.819 738.086 100.166C735.23 105.257 728.275 103.643 719.458 99.793L685.43 85.1388C677.731 82.2825 673.632 89.237 677.979 95.819L690.274 114.82C697.601 126.121 691.267 135.187 679.469 135.187C670.776 135.187 665.56 129.474 666.678 119.787L674.005 58.1901C675.495 45.7713 682.698 38.9409 693.751 38.9409H736.968C745.289 38.9409 752.989 42.915 752.989 52.1049C752.989 62.785 747.152 66.2623 739.825 66.2623C735.478 66.2623 726.04 61.7915 720.079 59.0594L697.601 48.876C689.901 45.3987 686.051 47.8825 684.437 50.9872C683.071 53.9677 683.567 57.4449 688.038 60.3013ZM783.487 135.435C782.659 132.786 782.038 129.639 781.624 125.997C781.293 122.354 781.211 118.711 781.376 115.068C781.542 111.425 781.956 108.403 782.618 106.002C784.522 105.506 786.261 104.222 787.834 102.153C789.407 100 790.193 96.4399 790.193 91.4724C790.193 87.25 789.738 83.9798 788.827 81.6616C787.999 79.2606 787.047 77.5634 785.971 76.5699C784.895 75.5764 783.943 75.0382 783.115 74.9554C782.287 72.2233 781.707 68.9944 781.376 65.2688C781.128 61.4603 781.169 57.6933 781.5 53.9677C781.914 50.242 782.618 47.1787 783.611 44.7778C787.503 45.2745 791.849 45.6885 796.651 46.0197C801.453 46.268 806.131 46.3922 810.684 46.3922C816.397 46.3922 821.779 46.3508 826.829 46.268C831.962 46.1025 836.143 45.9369 839.372 45.7713C838.296 46.9304 837.136 48.9174 835.895 51.7323C834.736 54.4644 833.783 57.3622 833.038 60.4255C832.376 63.4888 832.169 66.1795 832.417 68.4977C834.653 61.1292 838.834 55.2096 844.96 50.7388C851.17 46.1852 859.407 43.9085 869.674 43.9085C875.221 43.9085 879.857 44.6122 883.583 46.0197C887.308 47.3443 890.206 50.0765 892.276 54.2161C890.868 55.7891 889.461 57.4863 888.053 59.3078C886.646 61.0464 885.321 63.0334 884.079 65.2688L887.184 67.0074C891.075 60.1357 896.291 54.5886 902.832 50.3662C909.455 46.0611 916.617 43.9085 924.316 43.9085C930.94 43.9085 936.197 44.8606 940.088 46.7648C944.062 48.669 947.001 52.5602 948.906 58.4384C950.065 61.8329 950.603 65.3102 950.52 68.8702C950.437 72.3475 950.189 75.8661 949.775 79.4262C949.361 82.9035 949.154 86.3807 949.154 89.858C949.154 93.6664 949.526 96.6883 950.272 98.9237C951.017 101.076 951.969 102.691 953.128 103.767C954.37 104.843 955.57 105.588 956.729 106.002C957.475 108.403 957.888 111.425 957.971 115.068C958.137 118.711 958.054 122.354 957.723 125.997C957.392 129.639 956.812 132.786 955.984 135.435C952.838 135.104 949.071 134.69 944.683 134.193C940.295 133.779 934.955 133.572 928.663 133.572C921.874 133.572 915.872 133.779 910.656 134.193C905.44 134.69 901.3 135.104 898.237 135.435C897.823 133.2 897.492 130.26 897.243 126.618C896.995 122.892 896.912 119.042 896.995 115.068C897.161 111.094 897.492 107.658 897.989 104.761V87.6226H893.394V104.761C893.973 107.658 894.304 111.094 894.387 115.068C894.553 119.042 894.511 122.892 894.263 126.618C894.015 130.26 893.601 133.2 893.021 135.435C891.034 135.187 889.047 134.897 887.06 134.566C885.073 134.317 882.796 134.069 880.23 133.82C877.746 133.572 874.683 133.448 871.04 133.448C866.403 133.448 861.767 133.696 857.131 134.193C852.577 134.69 848.769 135.104 845.705 135.435C845.291 133.2 844.96 130.26 844.712 126.618C844.464 122.892 844.381 119.042 844.464 115.068C844.629 111.094 844.96 107.658 845.457 104.761V87.6226H840.862V104.761C841.442 107.658 841.773 111.094 841.856 115.068C842.021 119.042 841.98 122.892 841.731 126.618C841.483 130.26 841.069 133.2 840.49 135.435C838.503 135.187 836.309 134.897 833.908 134.566C831.507 134.317 828.526 134.069 824.966 133.82C821.489 133.655 817.018 133.572 811.554 133.572C805.924 133.572 800.667 133.779 795.782 134.193C790.98 134.607 786.882 135.021 783.487 135.435ZM996.55 154.808C989.43 154.808 983.593 154.063 979.04 152.573C974.486 151.083 970.926 149.096 968.359 146.612C965.793 144.211 963.971 141.562 962.895 138.664C961.902 135.849 961.405 133.034 961.405 130.219C961.405 125.086 962.481 120.946 964.634 117.8C966.869 114.654 969.56 112.377 972.706 110.97C975.852 109.48 978.791 108.735 981.523 108.735C982.848 108.735 984.504 108.983 986.491 109.48C988.478 109.894 990.548 110.722 992.7 111.963C994.936 113.123 996.964 114.903 998.785 117.303L1001.39 115.068C998.827 111.839 995.929 109.397 992.7 107.741C989.471 106.085 986.201 105.092 982.889 104.761C980.488 104.512 978.212 103.891 976.059 102.898C973.906 101.904 971.961 100.248 970.222 97.9302C968.484 95.5292 967.035 92.1761 965.876 87.871C964.634 83.2346 963.102 79.9643 961.281 78.0601C959.542 76.0731 957.679 75.0382 955.692 74.9554C955.03 73.548 954.533 71.561 954.202 68.9944C953.871 66.3451 953.705 63.5301 953.705 60.5496C953.788 57.4863 954.036 54.5472 954.45 51.7323C954.864 48.9174 955.444 46.5992 956.189 44.7778C959.335 45.0262 963.764 45.3573 969.477 45.7713C975.272 46.1852 981.73 46.3922 988.85 46.3922C994.232 46.3922 999.448 46.1852 1004.5 45.7713C1009.63 45.3573 1013.77 45.0262 1016.92 44.7778C1015.59 50.1593 1015.05 55.9961 1015.3 62.2883C1015.63 68.5805 1016.54 74.9554 1018.03 81.4132C1019.52 87.871 1021.3 94.0804 1023.37 100.041L1023.25 74.2103H1019.77C1018.86 68.0837 1018.57 62.5366 1018.9 57.5691C1019.23 52.6016 1019.86 48.3378 1020.77 44.7778C1022.92 45.0262 1025.2 45.2745 1027.6 45.5229C1030.08 45.7713 1033.19 45.9783 1036.91 46.1438C1040.64 46.3094 1045.44 46.3922 1051.32 46.3922C1053.8 46.3922 1056.62 46.3094 1059.76 46.1438C1062.99 45.8955 1066.14 45.6471 1069.2 45.3987C1072.35 45.1503 1074.95 44.9434 1077.02 44.7778C1077.77 46.5992 1078.31 48.9174 1078.64 51.7323C1079.05 54.5472 1079.26 57.4863 1079.26 60.5496C1079.26 63.5301 1079.09 66.3451 1078.76 68.9944C1078.43 71.561 1077.93 73.548 1077.27 74.9554C1074.79 75.0382 1072.88 76.2387 1071.56 78.5569C1070.23 80.8751 1069.12 84.0211 1068.21 87.9952C1067.38 91.8864 1066.34 96.2743 1065.1 101.159C1063.03 110.68 1060.34 118.835 1057.03 125.624C1053.72 132.413 1049.45 137.96 1044.24 142.265C1039.02 146.57 1032.52 149.717 1024.74 151.704C1017.04 153.773 1007.64 154.808 996.55 154.808ZM1194.14 133.324L1173.65 81.9099L1151.42 133.324H1148.44L1117.64 56.2031L1116.28 52.85C1115.04 49.6211 1111.93 47.6341 1108.58 47.6341H1108.33V46.3922H1134.16V47.6341H1134.04C1129.82 47.6341 1128.08 50.1179 1129.69 54.0919L1130.68 56.6998H1130.56L1154.78 118.67L1172.04 78.0601L1161.73 52.1049C1160.24 49.3727 1157.38 47.6341 1154.4 47.6341H1154.16V46.3922H1179.86V47.6341C1175.64 47.6341 1173.9 50.1179 1175.39 54.0919L1176.39 56.3273H1176.26L1199.86 116.931L1217.24 68.9944C1220.72 59.4319 1223.33 47.6341 1211.78 47.6341V46.3922H1238.23V47.3857C1229.91 47.3857 1225.44 53.9677 1218.61 73.341L1197.25 133.324H1194.14ZM1284.76 134.566C1316.05 134.566 1332.07 111.963 1332.07 89.4854C1332.07 67.2558 1316.42 45.1503 1284.76 45.1503C1254.08 45.1503 1238.81 67.5042 1238.81 89.858C1238.81 112.212 1254.08 134.566 1284.76 134.566ZM1279.42 48.876C1326.61 48.876 1341.14 130.716 1288.98 130.716C1242.9 130.716 1231.6 48.876 1279.42 48.876ZM1271.47 87.1258V88.6161C1280.16 88.6161 1283.76 95.6948 1283.76 105.009H1285.13C1285.13 95.6948 1288.73 88.6161 1297.42 88.6161V87.1258C1288.73 87.1258 1285.13 80.0471 1285.13 70.733H1283.76C1283.76 80.0471 1280.16 87.1258 1271.47 87.1258ZM1338.28 47.0132H1337.91V46.3922H1373.43C1409.2 46.3922 1409.2 78.5569 1382.37 92.3417C1397.15 94.7013 1406.21 125.624 1414.78 125.624C1416.77 125.624 1418.88 124.506 1420.87 122.271L1421.37 122.768C1415.78 130.964 1411.43 134.193 1407.71 134.193C1395.29 134.193 1389.95 99.2963 1371.81 96.4399L1357.41 100.911V119.291C1357.41 127.239 1360.39 132.703 1364.98 132.703H1365.36V133.324H1337.91V132.703H1338.28C1342.63 132.703 1345.49 127.859 1345.86 120.532V60.4255C1345.86 52.4774 1342.88 47.0132 1338.28 47.0132ZM1373.43 49.1244H1357.41V50.863V98.1786L1374.42 92.8385C1393.92 86.7533 1395.78 49.1244 1373.43 49.1244ZM1449.4 47.0132C1445.05 47.0132 1442.07 51.9807 1441.82 59.3078V101.904L1470.76 69.6154V69.4912L1472.25 67.8767L1472.5 67.6283C1479.33 60.0529 1486.16 47.6341 1474.61 47.6341V46.3922H1501.06V47.3857C1492.86 47.3857 1486.4 55.9547 1472.62 71.2298L1457.22 88.2435C1477.46 81.5374 1488.39 128.729 1501.18 128.729C1503.17 128.729 1505.28 127.611 1507.27 125.376L1507.64 125.872C1485.78 160.024 1472.99 98.3028 1453 92.8385L1441.82 105.257V119.291C1441.82 127.239 1444.8 132.703 1449.4 132.703H1449.77V133.324H1422.32V132.703H1422.7C1427.29 132.703 1430.27 127.239 1430.27 119.291V60.4255C1430.27 52.4774 1427.29 47.0132 1422.7 47.0132H1422.32V46.3922H1449.77V47.0132H1449.4Z" fill="white"/>
<path d="M366.978 242.984V239.831H370.131V242.984H366.978ZM372.152 242.984V239.831H375.306V242.984H372.152ZM377.327 242.984V239.831H380.48V242.984H377.327ZM361.803 237.809V234.656H364.957V237.809H361.803ZM382.501 237.809V234.656H385.655V237.809H382.501ZM361.803 232.635V229.482H364.957V232.635H361.803ZM382.501 232.635V229.482H385.655V232.635H382.501ZM361.803 227.46V224.307H364.957V227.46H361.803ZM382.501 227.46V224.307H385.655V227.46H382.501ZM361.803 222.286V219.133H364.957V222.286H361.803ZM382.501 222.286V219.133H385.655V222.286H382.501ZM361.803 217.111V213.958H364.957V217.111H361.803ZM382.501 217.111V213.958H385.655V217.111H382.501ZM361.803 211.937V208.784H364.957V211.937H361.803ZM382.501 211.937V208.784H385.655V211.937H382.501ZM361.803 206.762V203.609H364.957V206.762H361.803ZM382.501 206.762V203.609H385.655V206.762H382.501ZM361.803 201.588V198.435H364.957V201.588H361.803ZM382.501 201.588V198.435H385.655V201.588H382.501ZM392.77 242.984V239.831H395.923V242.984H392.77ZM397.944 242.984V239.831H401.097V242.984H397.944ZM403.119 242.984V239.831H406.272V242.984H403.119ZM408.293 242.984V239.831H411.446V242.984H408.293ZM413.468 242.984V239.831H416.621V242.984H413.468ZM403.119 237.809V234.656H406.272V237.809H403.119ZM403.119 232.635V229.482H406.272V232.635H403.119ZM403.119 227.46V224.307H406.272V227.46H403.119ZM403.119 222.286V219.133H406.272V222.286H403.119ZM403.119 217.111V213.958H406.272V217.111H403.119ZM403.119 211.937V208.784H406.272V211.937H403.119ZM403.119 206.762V203.609H406.272V206.762H403.119ZM392.77 201.588V198.435H395.923V201.588H392.77ZM397.944 201.588V198.435H401.097V201.588H397.944ZM403.119 201.588V198.435H406.272V201.588H403.119ZM408.293 201.588V198.435H411.446V201.588H408.293ZM413.468 201.588V198.435H416.621V201.588H413.468ZM423.736 242.984V239.831H426.889V242.984H423.736ZM423.736 237.809V234.656H426.889V237.809H423.736ZM428.91 232.635V229.482H432.063V232.635H428.91ZM428.91 227.46V224.307H432.063V227.46H428.91ZM434.085 222.286V219.133H437.238V222.286H434.085ZM434.085 217.111V213.958H437.238V217.111H434.085ZM439.259 211.937V208.784H442.412V211.937H439.259ZM439.259 206.762V203.609H442.412V206.762H439.259ZM444.434 201.588V198.435H447.587V201.588H444.434ZM459.876 242.984V239.831H463.03V242.984H459.876ZM465.051 242.984V239.831H468.204V242.984H465.051ZM470.225 242.984V239.831H473.379V242.984H470.225ZM454.702 237.809V234.656H457.855V237.809H454.702ZM475.4 237.809V234.656H478.553V237.809H475.4ZM454.702 232.635V229.482H457.855V232.635H454.702ZM475.4 232.635V229.482H478.553V232.635H475.4ZM454.702 227.46V224.307H457.855V227.46H454.702ZM475.4 227.46V224.307H478.553V227.46H475.4ZM454.702 222.286V219.133H457.855V222.286H454.702ZM475.4 222.286V219.133H478.553V222.286H475.4ZM454.702 217.111V213.958H457.855V217.111H454.702ZM475.4 217.111V213.958H478.553V217.111H475.4ZM454.702 211.937V208.784H457.855V211.937H454.702ZM475.4 211.937V208.784H478.553V211.937H475.4ZM454.702 206.762V203.609H457.855V206.762H454.702ZM475.4 206.762V203.609H478.553V206.762H475.4ZM454.702 201.588V198.435H457.855V201.588H454.702ZM475.4 201.588V198.435H478.553V201.588H475.4ZM485.668 242.984V239.831H488.821V242.984H485.668ZM506.366 242.984V239.831H509.519V242.984H506.366ZM485.668 237.809V234.656H488.821V237.809H485.668ZM506.366 237.809V234.656H509.519V237.809H506.366ZM490.842 232.635V229.482H493.996V232.635H490.842ZM501.191 232.635V229.482H504.345V232.635H501.191ZM490.842 227.46V224.307H493.996V227.46H490.842ZM501.191 227.46V224.307H504.345V227.46H501.191ZM496.017 222.286V219.133H499.17V222.286H496.017ZM490.842 217.111V213.958H493.996V217.111H490.842ZM501.191 217.111V213.958H504.345V217.111H501.191ZM490.842 211.937V208.784H493.996V211.937H490.842ZM501.191 211.937V208.784H504.345V211.937H501.191ZM485.668 206.762V203.609H488.821V206.762H485.668ZM506.366 206.762V203.609H509.519V206.762H506.366ZM485.668 201.588V198.435H488.821V201.588H485.668ZM506.366 201.588V198.435H509.519V201.588H506.366ZM526.983 242.984V239.831H530.136V242.984H526.983ZM558.03 242.984V239.831H561.183V242.984H558.03ZM526.983 237.809V234.656H530.136V237.809H526.983ZM558.03 237.809V234.656H561.183V237.809H558.03ZM526.983 232.635V229.482H530.136V232.635H526.983ZM558.03 232.635V229.482H561.183V232.635H558.03ZM526.983 227.46V224.307H530.136V227.46H526.983ZM558.03 227.46V224.307H561.183V227.46H558.03ZM526.983 222.286V219.133H530.136V222.286H526.983ZM558.03 222.286V219.133H561.183V222.286H558.03ZM526.983 217.111V213.958H530.136V217.111H526.983ZM542.507 217.111V213.958H545.66V217.111H542.507ZM558.03 217.111V213.958H561.183V217.111H558.03ZM526.983 211.937V208.784H530.136V211.937H526.983ZM537.332 211.937V208.784H540.485V211.937H537.332ZM547.681 211.937V208.784H550.834V211.937H547.681ZM558.03 211.937V208.784H561.183V211.937H558.03ZM526.983 206.762V203.609H530.136V206.762H526.983ZM532.158 206.762V203.609H535.311V206.762H532.158ZM552.856 206.762V203.609H556.009V206.762H552.856ZM558.03 206.762V203.609H561.183V206.762H558.03ZM526.983 201.588V198.435H530.136V201.588H526.983ZM558.03 201.588V198.435H561.183V201.588H558.03ZM573.473 242.984V239.831H576.626V242.984H573.473ZM578.647 242.984V239.831H581.8V242.984H578.647ZM583.822 242.984V239.831H586.975V242.984H583.822ZM568.298 237.809V234.656H571.451V237.809H568.298ZM588.996 237.809V234.656H592.149V237.809H588.996ZM568.298 232.635V229.482H571.451V232.635H568.298ZM588.996 232.635V229.482H592.149V232.635H588.996ZM568.298 227.46V224.307H571.451V227.46H568.298ZM588.996 227.46V224.307H592.149V227.46H588.996ZM568.298 222.286V219.133H571.451V222.286H568.298ZM588.996 222.286V219.133H592.149V222.286H588.996ZM568.298 217.111V213.958H571.451V217.111H568.298ZM588.996 217.111V213.958H592.149V217.111H588.996ZM568.298 211.937V208.784H571.451V211.937H568.298ZM588.996 211.937V208.784H592.149V211.937H588.996ZM568.298 206.762V203.609H571.451V206.762H568.298ZM588.996 206.762V203.609H592.149V206.762H588.996ZM573.473 201.588V198.435H576.626V201.588H573.473ZM578.647 201.588V198.435H581.8V201.588H578.647ZM583.822 201.588V198.435H586.975V201.588H583.822ZM599.264 242.984V239.831H602.417V242.984H599.264ZM604.439 242.984V239.831H607.592V242.984H604.439ZM609.613 242.984V239.831H612.766V242.984H609.613ZM614.788 242.984V239.831H617.941V242.984H614.788ZM599.264 237.809V234.656H602.417V237.809H599.264ZM619.962 237.809V234.656H623.115V237.809H619.962ZM599.264 232.635V229.482H602.417V232.635H599.264ZM619.962 232.635V229.482H623.115V232.635H619.962ZM599.264 227.46V224.307H602.417V227.46H599.264ZM619.962 227.46V224.307H623.115V227.46H619.962ZM599.264 222.286V219.133H602.417V222.286H599.264ZM604.439 222.286V219.133H607.592V222.286H604.439ZM609.613 222.286V219.133H612.766V222.286H609.613ZM614.788 222.286V219.133H617.941V222.286H614.788ZM599.264 217.111V213.958H602.417V217.111H599.264ZM619.962 217.111V213.958H623.115V217.111H619.962ZM599.264 211.937V208.784H602.417V211.937H599.264ZM619.962 211.937V208.784H623.115V211.937H619.962ZM599.264 206.762V203.609H602.417V206.762H599.264ZM619.962 206.762V203.609H623.115V206.762H619.962ZM599.264 201.588V198.435H602.417V201.588H599.264ZM604.439 201.588V198.435H607.592V201.588H604.439ZM609.613 201.588V198.435H612.766V201.588H609.613ZM614.788 201.588V198.435H617.941V201.588H614.788ZM630.23 242.984V239.831H633.384V242.984H630.23ZM635.405 242.984V239.831H638.558V242.984H635.405ZM640.579 242.984V239.831H643.733V242.984H640.579ZM645.754 242.984V239.831H648.907V242.984H645.754ZM650.928 242.984V239.831H654.082V242.984H650.928ZM640.579 237.809V234.656H643.733V237.809H640.579ZM640.579 232.635V229.482H643.733V232.635H640.579ZM640.579 227.46V224.307H643.733V227.46H640.579ZM640.579 222.286V219.133H643.733V222.286H640.579ZM640.579 217.111V213.958H643.733V217.111H640.579ZM640.579 211.937V208.784H643.733V211.937H640.579ZM640.579 206.762V203.609H643.733V206.762H640.579ZM630.23 201.588V198.435H633.384V201.588H630.23ZM635.405 201.588V198.435H638.558V201.588H635.405ZM640.579 201.588V198.435H643.733V201.588H640.579ZM645.754 201.588V198.435H648.907V201.588H645.754ZM650.928 201.588V198.435H654.082V201.588H650.928ZM661.196 242.984V239.831H664.35V242.984H661.196ZM666.371 242.984V239.831H669.524V242.984H666.371ZM671.545 242.984V239.831H674.699V242.984H671.545ZM676.72 242.984V239.831H679.873V242.984H676.72ZM681.894 242.984V239.831H685.048V242.984H681.894ZM661.196 237.809V234.656H664.35V237.809H661.196ZM661.196 232.635V229.482H664.35V232.635H661.196ZM661.196 227.46V224.307H664.35V227.46H661.196ZM661.196 222.286V219.133H664.35V222.286H661.196ZM661.196 217.111V213.958H664.35V217.111H661.196ZM661.196 211.937V208.784H664.35V211.937H661.196ZM661.196 206.762V203.609H664.35V206.762H661.196ZM661.196 201.588V198.435H664.35V201.588H661.196ZM692.163 242.984V239.831H695.316V242.984H692.163ZM697.337 242.984V239.831H700.49V242.984H697.337ZM702.512 242.984V239.831H705.665V242.984H702.512ZM707.686 242.984V239.831H710.839V242.984H707.686ZM712.861 242.984V239.831H716.014V242.984H712.861ZM692.163 237.809V234.656H695.316V237.809H692.163ZM692.163 232.635V229.482H695.316V232.635H692.163ZM692.163 227.46V224.307H695.316V227.46H692.163ZM692.163 222.286V219.133H695.316V222.286H692.163ZM697.337 222.286V219.133H700.49V222.286H697.337ZM702.512 222.286V219.133H705.665V222.286H702.512ZM707.686 222.286V219.133H710.839V222.286H707.686ZM712.861 222.286V219.133H716.014V222.286H712.861ZM692.163 217.111V213.958H695.316V217.111H692.163ZM692.163 211.937V208.784H695.316V211.937H692.163ZM692.163 206.762V203.609H695.316V206.762H692.163ZM692.163 201.588V198.435H695.316V201.588H692.163ZM697.337 201.588V198.435H700.49V201.588H697.337ZM702.512 201.588V198.435H705.665V201.588H702.512ZM707.686 201.588V198.435H710.839V201.588H707.686ZM712.861 201.588V198.435H716.014V201.588H712.861ZM723.129 242.984V239.831H726.282V242.984H723.129ZM728.303 237.809V234.656H731.456V237.809H728.303ZM723.129 232.635V229.482H726.282V232.635H723.129ZM728.303 232.635V229.482H731.456V232.635H728.303ZM759.35 242.984V239.831H762.503V242.984H759.35ZM759.35 237.809V234.656H762.503V237.809H759.35ZM759.35 232.635V229.482H762.503V232.635H759.35ZM759.35 227.46V224.307H762.503V227.46H759.35ZM759.35 222.286V219.133H762.503V222.286H759.35ZM759.35 217.111V213.958H762.503V217.111H759.35ZM759.35 211.937V208.784H762.503V211.937H759.35ZM759.35 206.762V203.609H762.503V206.762H759.35ZM749.001 201.588V198.435H752.154V201.588H749.001ZM754.176 201.588V198.435H757.329V201.588H754.176ZM759.35 201.588V198.435H762.503V201.588H759.35ZM764.525 201.588V198.435H767.678V201.588H764.525ZM769.699 201.588V198.435H772.852V201.588H769.699ZM779.967 242.984V239.831H783.12V242.984H779.967ZM800.665 242.984V239.831H803.818V242.984H800.665ZM779.967 237.809V234.656H783.12V237.809H779.967ZM800.665 237.809V234.656H803.818V237.809H800.665ZM779.967 232.635V229.482H783.12V232.635H779.967ZM800.665 232.635V229.482H803.818V232.635H800.665ZM779.967 227.46V224.307H783.12V227.46H779.967ZM800.665 227.46V224.307H803.818V227.46H800.665ZM779.967 222.286V219.133H783.12V222.286H779.967ZM785.142 222.286V219.133H788.295V222.286H785.142ZM790.316 222.286V219.133H793.469V222.286H790.316ZM795.491 222.286V219.133H798.644V222.286H795.491ZM800.665 222.286V219.133H803.818V222.286H800.665ZM779.967 217.111V213.958H783.12V217.111H779.967ZM800.665 217.111V213.958H803.818V217.111H800.665ZM779.967 211.937V208.784H783.12V211.937H779.967ZM800.665 211.937V208.784H803.818V211.937H800.665ZM779.967 206.762V203.609H783.12V206.762H779.967ZM800.665 206.762V203.609H803.818V206.762H800.665ZM785.142 201.588V198.435H788.295V201.588H785.142ZM790.316 201.588V198.435H793.469V201.588H790.316ZM795.491 201.588V198.435H798.644V201.588H795.491ZM810.933 242.984V239.831H814.087V242.984H810.933ZM816.108 242.984V239.831H819.261V242.984H816.108ZM821.282 242.984V239.831H824.436V242.984H821.282ZM826.457 242.984V239.831H829.61V242.984H826.457ZM810.933 237.809V234.656H814.087V237.809H810.933ZM831.631 237.809V234.656H834.785V237.809H831.631ZM810.933 232.635V229.482H814.087V232.635H810.933ZM831.631 232.635V229.482H834.785V232.635H831.631ZM810.933 227.46V224.307H814.087V227.46H810.933ZM831.631 227.46V224.307H834.785V227.46H831.631ZM810.933 222.286V219.133H814.087V222.286H810.933ZM816.108 222.286V219.133H819.261V222.286H816.108ZM821.282 222.286V219.133H824.436V222.286H821.282ZM826.457 222.286V219.133H829.61V222.286H826.457ZM810.933 217.111V213.958H814.087V217.111H810.933ZM831.631 217.111V213.958H834.785V217.111H831.631ZM810.933 211.937V208.784H814.087V211.937H810.933ZM831.631 211.937V208.784H834.785V211.937H831.631ZM810.933 206.762V203.609H814.087V206.762H810.933ZM831.631 206.762V203.609H834.785V206.762H831.631ZM810.933 201.588V198.435H814.087V201.588H810.933ZM816.108 201.588V198.435H819.261V201.588H816.108ZM821.282 201.588V198.435H824.436V201.588H821.282ZM826.457 201.588V198.435H829.61V201.588H826.457ZM857.423 242.984V239.831H860.576V242.984H857.423ZM862.597 242.984V239.831H865.751V242.984H862.597ZM867.772 242.984V239.831H870.925V242.984H867.772ZM878.121 242.984V239.831H881.274V242.984H878.121ZM852.249 237.809V234.656H855.402V237.809H852.249ZM872.946 237.809V234.656H876.1V237.809H872.946ZM852.249 232.635V229.482H855.402V232.635H852.249ZM872.946 232.635V229.482H876.1V232.635H872.946ZM852.249 227.46V224.307H855.402V227.46H852.249ZM867.772 227.46V224.307H870.925V227.46H867.772ZM878.121 227.46V224.307H881.274V227.46H878.121ZM852.249 222.286V219.133H855.402V222.286H852.249ZM862.597 222.286V219.133H865.751V222.286H862.597ZM857.423 217.111V213.958H860.576V217.111H857.423ZM862.597 217.111V213.958H865.751V217.111H862.597ZM852.249 211.937V208.784H855.402V211.937H852.249ZM867.772 211.937V208.784H870.925V211.937H867.772ZM852.249 206.762V203.609H855.402V206.762H852.249ZM867.772 206.762V203.609H870.925V206.762H867.772ZM857.423 201.588V198.435H860.576V201.588H857.423ZM862.597 201.588V198.435H865.751V201.588H862.597ZM898.738 242.984V239.831H901.891V242.984H898.738ZM929.785 242.984V239.831H932.938V242.984H929.785ZM898.738 237.809V234.656H901.891V237.809H898.738ZM903.913 237.809V234.656H907.066V237.809H903.913ZM924.611 237.809V234.656H927.764V237.809H924.611ZM929.785 237.809V234.656H932.938V237.809H929.785ZM898.738 232.635V229.482H901.891V232.635H898.738ZM909.087 232.635V229.482H912.24V232.635H909.087ZM919.436 232.635V229.482H922.589V232.635H919.436ZM929.785 232.635V229.482H932.938V232.635H929.785ZM898.738 227.46V224.307H901.891V227.46H898.738ZM914.262 227.46V224.307H917.415V227.46H914.262ZM929.785 227.46V224.307H932.938V227.46H929.785ZM898.738 222.286V219.133H901.891V222.286H898.738ZM929.785 222.286V219.133H932.938V222.286H929.785ZM898.738 217.111V213.958H901.891V217.111H898.738ZM929.785 217.111V213.958H932.938V217.111H929.785ZM898.738 211.937V208.784H901.891V211.937H898.738ZM929.785 211.937V208.784H932.938V211.937H929.785ZM898.738 206.762V203.609H901.891V206.762H898.738ZM929.785 206.762V203.609H932.938V206.762H929.785ZM898.738 201.588V198.435H901.891V201.588H898.738ZM929.785 201.588V198.435H932.938V201.588H929.785ZM940.053 242.984V239.831H943.206V242.984H940.053ZM945.228 242.984V239.831H948.381V242.984H945.228ZM950.402 242.984V239.831H953.555V242.984H950.402ZM955.577 242.984V239.831H958.73V242.984H955.577ZM960.751 242.984V239.831H963.904V242.984H960.751ZM940.053 237.809V234.656H943.206V237.809H940.053ZM940.053 232.635V229.482H943.206V232.635H940.053ZM940.053 227.46V224.307H943.206V227.46H940.053ZM940.053 222.286V219.133H943.206V222.286H940.053ZM945.228 222.286V219.133H948.381V222.286H945.228ZM950.402 222.286V219.133H953.555V222.286H950.402ZM955.577 222.286V219.133H958.73V222.286H955.577ZM960.751 222.286V219.133H963.904V222.286H960.751ZM940.053 217.111V213.958H943.206V217.111H940.053ZM940.053 211.937V208.784H943.206V211.937H940.053ZM940.053 206.762V203.609H943.206V206.762H940.053ZM940.053 201.588V198.435H943.206V201.588H940.053ZM945.228 201.588V198.435H948.381V201.588H945.228ZM950.402 201.588V198.435H953.555V201.588H950.402ZM955.577 201.588V198.435H958.73V201.588H955.577ZM960.751 201.588V198.435H963.904V201.588H960.751ZM971.019 242.984V239.831H974.173V242.984H971.019ZM976.194 242.984V239.831H979.347V242.984H976.194ZM981.368 242.984V239.831H984.522V242.984H981.368ZM986.543 242.984V239.831H989.696V242.984H986.543ZM971.019 237.809V234.656H974.173V237.809H971.019ZM991.717 237.809V234.656H994.871V237.809H991.717ZM971.019 232.635V229.482H974.173V232.635H971.019ZM991.717 232.635V229.482H994.871V232.635H991.717ZM971.019 227.46V224.307H974.173V227.46H971.019ZM991.717 227.46V224.307H994.871V227.46H991.717ZM971.019 222.286V219.133H974.173V222.286H971.019ZM976.194 222.286V219.133H979.347V222.286H976.194ZM981.368 222.286V219.133H984.522V222.286H981.368ZM986.543 222.286V219.133H989.696V222.286H986.543ZM971.019 217.111V213.958H974.173V217.111H971.019ZM991.717 217.111V213.958H994.871V217.111H991.717ZM971.019 211.937V208.784H974.173V211.937H971.019ZM991.717 211.937V208.784H994.871V211.937H991.717ZM971.019 206.762V203.609H974.173V206.762H971.019ZM991.717 206.762V203.609H994.871V206.762H991.717ZM971.019 201.588V198.435H974.173V201.588H971.019ZM976.194 201.588V198.435H979.347V201.588H976.194ZM981.368 201.588V198.435H984.522V201.588H981.368ZM986.543 201.588V198.435H989.696V201.588H986.543Z" fill="url(#paint0_linear_2244_2)"/>
<defs>
<linearGradient id="paint0_linear_2244_2" x1="1001.44" y1="220.239" x2="360.833" y2="220.239" gradientUnits="userSpaceOnUse">
<stop stop-color="#3D7CF2"/>
<stop offset="0.33" stop-color="#D569F7"/>
<stop offset="0.64" stop-color="#5ADC40"/>
<stop offset="1" stop-color="#FFE500"/>
</linearGradient>
</defs>
</svg>
